<svg width="24" height="24" viewBox="0 0 24 24" fill="none" xmlns="http://www.w3.org/2000/svg">
<path fill-rule="evenodd" clip-rule="evenodd" d="M7 2C7 1.44772 6.55228 1 6 1C5.44772 1 5 1.44772 5 2V3H4C2.34315 3 1 4.34315 1 6V7C1 7.55228 1.44772 8 2 8H22C22.5523 8 23 7.55228 23 7V6C23 4.34315 21.6569 3 20 3H19V2C19 1.44772 18.5523 1 18 1C17.4477 1 17 1.44772 17 2V3H7V2ZM23 11.0001C23 10.4478 22.5523 10.0001 22 10.0001H2C1.44772 10.0001 1 10.4478 1 11.0001V20C1 21.6569 2.34315 23 4 23H20C21.6569 23 23 21.6569 23 20V11.0001Z" fill="#F34700"/>
</svg>
