<svg width="24" height="24" viewBox="0 0 24 24" fill="none" xmlns="http://www.w3.org/2000/svg">
<path fill-rule="evenodd" clip-rule="evenodd" d="M13 3C13 2.44772 12.5523 2 12 2C11.4477 2 11 2.44772 11 3H8C8 2.44772 7.55228 2 7 2C6.44772 2 6 2.44772 6 3C3.79086 3 2 4.79086 2 7V18C2 20.2091 3.79086 22 6 22H18C20.2091 22 22 20.2091 22 18V7C22 4.79086 20.2091 3 18 3C18 2.44772 17.5523 2 17 2C16.4477 2 16 2.44772 16 3H13ZM12 8C12.5523 8 13 8.44772 13 9V14C13 14.5523 12.5523 15 12 15C11.4477 15 11 14.5523 11 14V9C11 8.44772 11.4477 8 12 8ZM12 18C12.5523 18 13 17.5523 13 17C13 16.4477 12.5523 16 12 16C11.4477 16 11 16.4477 11 17C11 17.5523 11.4477 18 12 18Z" fill="#FF427C"/>
</svg>
