<svg width="24" height="24" viewBox="0 0 24 24" fill="none" xmlns="http://www.w3.org/2000/svg">
<path d="M6.31126 22.3084H22.7325C22.9387 22.3084 23.1075 22.1434 23.1075 21.9334C23.1075 21.7271 22.9387 21.5584 22.7325 21.5584H21.9037V10.2971H22.875C23.0213 10.2971 23.1562 10.2109 23.2162 10.0796C23.2763 9.9446 23.2538 9.7871 23.1562 9.67836L19.9013 5.94711C19.7588 5.78586 19.4775 5.78586 19.335 5.94711L16.08 9.67836C15.9825 9.7871 15.96 9.9446 16.02 10.0796C16.08 10.2109 16.215 10.2971 16.3613 10.2971H17.3325V21.5584H16.7625V12.5359C16.7625 12.3296 16.5938 12.1609 16.3875 12.1609H12.5625C12.3563 12.1609 12.1875 12.3296 12.1875 12.5359V21.5584H11.67V15.0409C11.67 14.8346 11.5012 14.6659 11.295 14.6659H7.46999C7.25999 14.6659 7.09499 14.8346 7.09499 15.0409V21.5584H6.68626V17.6546C6.68626 17.4446 6.5175 17.2796 6.31126 17.2796H2.48625C2.27625 17.2796 2.11125 17.4446 2.11125 17.6546V21.5584H1.125C0.918755 21.5584 0.75 21.7271 0.75 21.9334C0.75 22.1434 0.918755 22.3084 1.125 22.3084H6.31126Z" fill="#3CAE5C"/>
<path d="M6.36001 12.9114C9.45376 12.9114 11.97 10.3951 11.97 7.30139C11.97 4.20764 9.45376 1.69141 6.36001 1.69141C3.26626 1.69141 0.75 4.20764 0.75 7.30139C0.75 10.3951 3.26626 12.9114 6.36001 12.9114ZM6.6525 7.67639H6.0675C5.2725 7.67639 4.62751 7.0314 4.62751 6.2364C4.62751 5.46764 5.2275 4.83764 5.98501 4.79639V4.20016C5.98501 3.99389 6.15374 3.82516 6.36001 3.82516C6.57001 3.82516 6.73501 3.99389 6.73501 4.20016V4.79639C7.49249 4.83764 8.09626 5.46764 8.09626 6.2364C8.09626 6.44265 7.92751 6.6114 7.72126 6.6114C7.51126 6.6114 7.34626 6.44265 7.34626 6.2364C7.34626 5.8539 7.035 5.54264 6.6525 5.54264H6.0675C5.68874 5.54264 5.37751 5.8539 5.37751 6.2364C5.37751 6.61516 5.68874 6.92639 6.0675 6.92639H6.6525C7.44749 6.92639 8.09626 7.57516 8.09626 8.3664C8.09626 9.13515 7.49249 9.76514 6.73501 9.80639V10.4026C6.73501 10.6126 6.57001 10.7776 6.36001 10.7776C6.15374 10.7776 5.98501 10.6126 5.98501 10.4026V9.80639C5.2275 9.76514 4.62751 9.13515 4.62751 8.3664C4.62751 8.16016 4.79624 7.9914 5.00251 7.9914C5.20876 7.9914 5.37751 8.16016 5.37751 8.3664C5.37751 8.74889 5.68874 9.06014 6.0675 9.06014H6.6525C7.035 9.06014 7.34626 8.74889 7.34626 8.3664C7.34626 7.98765 7.035 7.67639 6.6525 7.67639Z" fill="#3CAE5C"/>
</svg>
