<svg width="24" height="24" viewBox="0 0 24 24" fill="none" xmlns="http://www.w3.org/2000/svg">
<path d="M3.836 15.841C4.5 16.435 5.253 16.906 6.06 17.26L10.304 14.595C11.182 14.041 12.358 14.172 13.093 14.911L14.52 16.338C16.659 14.761 18 12.238 18 9.5C18 4.813 14.187 1 9.5 1C4.813 1 1 4.813 1 9.5C1 11.919 2.033 14.23 3.836 15.841ZM9.88 10.25H9.12C7.951 10.25 7 9.299 7 8.13C7 7.079 7.758 6.214 8.75 6.038V5.25C8.75 4.836 9.086 4.5 9.5 4.5C9.914 4.5 10.25 4.836 10.25 5.25V6H11.25C11.664 6 12 6.336 12 6.75C12 7.164 11.664 7.5 11.25 7.5H9.12C8.778 7.5 8.5 7.778 8.5 8.12C8.5 8.472 8.778 8.75 9.12 8.75H9.88C11.049 8.75 12 9.701 12 10.87C12 11.921 11.242 12.786 10.25 12.962V13.749C10.25 14.163 9.914 14.499 9.5 14.499C9.086 14.499 8.75 14.163 8.75 13.749V13H7.75C7.336 13 7 12.664 7 12.25C7 11.836 7.336 11.5 7.75 11.5H9.88C10.222 11.5 10.5 11.222 10.5 10.88C10.5 10.528 10.222 10.25 9.88 10.25Z" fill="#007BFF"/>
<path d="M22.9996 12H18.9996C18.5956 12 18.2296 12.244 18.0756 12.617C17.9206 12.991 18.0066 13.421 18.2926 13.707L19.5856 15L15.4996 19.086L12.2066 15.793C11.8796 15.464 11.3656 15.407 10.9736 15.65L0.473636 22.15C0.00363612 22.441 -0.140364 23.057 0.149636 23.526C0.338636 23.832 0.665636 24 1.00064 24C1.18064 24 1.36164 23.952 1.52564 23.85L11.3516 17.767L14.7916 21.207C15.1826 21.598 15.8146 21.598 16.2056 21.207L20.9996 16.414L22.2926 17.707C22.4836 17.898 22.7396 18 22.9996 18C23.1286 18 23.2586 17.975 23.3826 17.924C23.7566 17.769 23.9996 17.404 23.9996 17V13C23.9996 12.448 23.5526 12 22.9996 12Z" fill="#007BFF"/>
</svg>
